<svg xmlns="http://www.w3.org/2000/svg" width="16pt" height="16pt" viewBox="0 0 16 16"><g fill="#7fa8d6"><path d="M3.309 2.441h9.261a.66.66 0 1 1 0 1.32H3.31a.66.66 0 1 1 0-1.32zm0 0"/><path d="M2.977 2.441h9.921c.368 0 .665.29.665.649v.027a.655.655 0 0 1-.665.645H2.977a.654.654 0 0 1-.66-.645V3.09c0-.36.296-.649.66-.649zm0 0"/><path d="M13.563 3.102v9.921a.658.658 0 0 1-.649.665h-.027a.655.655 0 0 1-.649-.665V3.102c0-.364.29-.66.649-.66h.027c.356 0 .649.296.649.66zm0 0M3.637 7.07v5.953c0 .368-.29.665-.645.665h-.027a.655.655 0 0 1-.649-.665V7.07c0-.363.29-.66.649-.66h.027c.356 0 .645.297.645.66zm0 0"/><path d="M8.93 13.688H2.977a.657.657 0 0 1-.66-.649v-.027c0-.36.296-.649.66-.649H8.93c.367 0 .664.29.664.649v.027a.658.658 0 0 1-.664.649zm0 0"/></g></svg>